HIERARCHY
ROOT Pelvis
{
	OFFSET 0.000000 0.000000 0.000000
	CHANNELS 6 Xposition Yposition Zposition Zrotation Yrotation Xrotation
	JOINT L_Hip
	{
		OFFSET 1.145904 0.000000 0.000000
		CHANNELS 3 Zrotation Yrotation Xrotation
		JOINT L_Knee
		{
			OFFSET 0.000000 -0.372000 0.000000
			CHANNELS 3 Zrotation Yrotation Xrotation
			JOINT L_Ankle
			{
				OFFSET 0.000000 -0.438866 0.000000
				CHANNELS 3 Zrotation Yrotation Xrotation
				JOINT L_Foot
				{
					OFFSET 0.000000 0.000000 0.147370
					CHANNELS 3 Zrotation Yrotation Xrotation
					End Site
					{
						OFFSET 0.000000 0.000000 0.000000
					}
				}
			}
		}
	}
	JOINT R_Hip
	{
		OFFSET -1.153918 0.000000 0.000000
		CHANNELS 3 Zrotation Yrotation Xrotation
		JOINT R_Knee
		{
			OFFSET 0.000000 -0.374561 0.000000
			CHANNELS 3 Zrotation Yrotation Xrotation
			JOINT R_Ankle
			{
				OFFSET 0.000000 -0.417425 0.000000
				CHANNELS 3 Zrotation Yrotation Xrotation
				JOINT R_Foot
				{
					OFFSET 0.000000 0.000000 0.143055
					CHANNELS 3 Zrotation Yrotation Xrotation
					End Site
					{
						OFFSET 0.000000 0.000000 0.000000
					}
				}
			}
		}
	}
	JOINT Spine1
	{
		OFFSET 0.000000 0.949378 0.000000
		CHANNELS 3 Zrotation Yrotation Xrotation
		JOINT Spine2
		{
			OFFSET 0.000000 0.157766 0.000000
			CHANNELS 3 Zrotation Yrotation Xrotation
			JOINT Spine3
			{
				OFFSET 0.000000 0.067774 0.000000
				CHANNELS 3 Zrotation Yrotation Xrotation
				JOINT Neck
				{
					OFFSET 0.000000 0.226163 0.000000
					CHANNELS 3 Zrotation Yrotation Xrotation
					JOINT Head
					{
						OFFSET 0.000000 0.000000 0.071813
						CHANNELS 3 Zrotation Yrotation Xrotation
						End Site
						{
							OFFSET 0.000000 0.000000 0.000000
						}
					}
				}
				JOINT L_Collar
				{
					OFFSET 0.152830 0.000000 0.000000
					CHANNELS 3 Zrotation Yrotation Xrotation
					JOINT L_Shoulder
					{
						OFFSET 0.000000 -0.131657 0.000000
						CHANNELS 3 Zrotation Yrotation Xrotation
						JOINT L_Elbow
						{
							OFFSET 0.000000 -0.285938 0.000000
							CHANNELS 3 Zrotation Yrotation Xrotation
							JOINT L_Wrist
							{
								OFFSET 0.000000 -0.255490 0.000000
								CHANNELS 3 Zrotation Yrotation Xrotation
								End Site
								{
									OFFSET 0.000000 0.000000 0.000000
								}
							}
						}
					}
				}
				JOINT R_Collar
				{
					OFFSET -0.161580 0.000000 0.000000
					CHANNELS 3 Zrotation Yrotation Xrotation
					JOINT R_Shoulder
					{
						OFFSET 0.000000 -0.120310 0.000000
						CHANNELS 3 Zrotation Yrotation Xrotation
						JOINT R_Elbow
						{
							OFFSET 0.000000 -0.290046 0.000000
							CHANNELS 3 Zrotation Yrotation Xrotation
							JOINT R_Wrist
							{
								OFFSET 0.000000 -0.260457 0.000000
								CHANNELS 3 Zrotation Yrotation Xrotation
								End Site
								{
									OFFSET 0.000000 0.000000 0.000000
								}
							}
						}
					}
				}
			}
		}
	}
}
MOTION
Frames: 11
Frame Time: 0.05000000
0.010721 2.385235 -0.402293 0.000000 -3.105326 0.000000 -54.999303 0.249983 -1.375527 57.923419 -0.436417 -11.870131 -8.899736 2.943718 20.037139 6.740914 20.337973 11.614586 56.724079 -2.015952 -0.724986 -66.061385 1.760794 -14.695548 13.542283 -4.088466 70.651204 3.041182 -31.265386 16.344562 0.357679 1.326055 -24.729970 -0.332017 0.461612 40.220546 -1.880129 -0.548747 -12.544365 -0.156786 -0.349379 -8.127997 1.217625 -0.599710 -50.667200 53.499038 7.104629 3.833254 30.768739 -7.486285 -0.955960 -79.768079 -3.427507 4.703744 -0.941449 0.110240 -23.687342 -57.165152 -4.979186 1.996874 -28.795664 5.894796 -3.491490 79.229880 1.557312 0.715332 7.312091 -0.452144 -32.402110
0.014642 2.618667 -0.419446 0.000000 -3.731187 0.000000 -56.049741 1.312212 -2.051306 59.081382 -1.835873 -5.305468 -9.113165 1.699903 13.885511 6.004290 19.876568 12.353161 55.472631 -0.448943 0.143471 -64.245784 -0.325317 -21.848851 14.047210 -5.444754 68.150938 1.206785 -31.927689 13.666754 -0.110794 0.891945 -25.080357 -0.558563 0.503677 40.882340 -0.572685 -0.298941 -13.044876 -0.387207 -0.491174 -7.862701 1.218477 -0.468890 -48.057829 53.340581 6.559058 3.137854 31.727868 -4.358782 -3.194222 -79.863257 -1.443508 5.393322 -3.395497 0.049684 -28.230526 -56.610172 -6.481522 2.654698 -29.169170 7.422587 -3.137446 78.771055 2.533448 3.363579 4.192771 -0.706669 -27.090794
0.016631 2.682412 -0.437802 0.000000 -4.325233 0.000000 -57.576842 3.489462 -3.034336 60.520845 -3.750388 0.772090 -8.396463 0.565233 9.012343 5.149096 19.968109 10.515606 54.501986 0.408300 0.817856 -62.494114 -1.862711 -27.431763 13.536112 -5.407968 58.559542 -1.053600 -30.328550 12.804321 0.139342 1.059852 -23.985828 -1.390050 0.883903 41.023291 -0.936348 -0.349480 -13.896592 -0.040896 -0.288272 -7.630461 1.126530 -0.980361 -47.460068 53.549714 6.907813 3.373990 33.173020 -2.884980 -5.602189 -79.946258 0.156646 2.850988 -6.325062 -0.682204 -32.438826 -56.558529 -7.094202 2.602586 -29.899481 10.287473 -0.719939 78.934686 4.679116 3.624182 1.035590 -0.546629 -24.887560
0.016075 2.540017 -0.456076 0.000000 -5.019711 0.000000 -58.005709 5.045607 -3.722020 62.486675 -4.864669 5.916256 -8.800963 0.214308 7.570672 3.795741 20.730521 6.069243 53.823967 0.511216 1.261967 -61.917816 -1.790665 -29.708181 12.648727 -5.467355 41.476915 -5.561853 -28.232297 13.906290 0.200447 0.826027 -22.694460 -1.510231 0.969095 40.182870 -0.480416 -0.077273 -12.528939 0.494300 0.016393 -7.374764 0.757630 -1.423869 -49.073615 54.362968 5.390307 2.876016 33.669961 -2.110349 -4.818770 -79.988619 0.704459 0.404976 -9.634626 -1.031751 -36.647073 -55.880288 -5.886796 1.826522 -30.028612 12.016102 2.537572 79.121936 6.951172 5.353553 -1.315264 -0.994472 -24.247131
0.013771 2.289394 -0.473251 0.000000 -5.878804 0.000000 -58.155127 6.803292 -4.634280 62.873421 -6.574101 9.586089 -9.067254 -0.442160 7.062511 2.619110 20.961733 3.031752 54.037462 1.197682 2.282573 -61.545578 -2.527211 -28.904579 10.761486 -4.209851 22.240764 -8.089923 -25.281617 14.402103 0.598474 1.097993 -21.900331 -2.048489 1.448354 39.328216 -0.188273 -0.076642 -11.287698 0.838008 0.068130 -7.547727 0.069912 -0.986292 -50.156224 55.273774 4.634596 2.368134 33.311680 -1.133615 -3.557131 -79.925555 1.148072 -1.080831 -11.324896 -0.763250 -39.707175 -56.238879 -5.188202 1.301058 -30.003781 12.517819 4.014411 79.760497 7.821321 8.945981 -2.018715 -2.103948 -23.122251
0.010808 2.066447 -0.487614 0.000000 -6.499225 0.000000 -57.821171 7.966465 -5.901905 63.836164 -7.377674 11.631820 -10.074396 -0.184275 8.554189 1.897015 19.829643 0.825251 54.294103 1.155460 2.037533 -60.846610 -1.405320 -27.220015 8.826953 -3.795819 9.170161 -10.580176 -22.184318 16.208671 1.951054 1.261658 -21.514655 -2.913717 1.421335 38.592836 -0.160788 -0.000190 -11.537217 0.902384 0.231035 -7.262468 0.458911 -1.569394 -50.931064 55.188506 4.384143 2.455691 33.758275 -0.644039 -4.164306 -78.857505 0.882997 -0.914516 -11.545224 -0.505165 -41.929534 -56.465092 -5.035067 1.596672 -30.009543 12.593005 4.198960 80.047228 8.112262 9.100654 -1.615613 -1.867731 -21.755119
0.006322 1.911827 -0.495786 0.000000 -7.619009 0.000000 -58.329938 8.880226 -6.278911 64.382039 -7.972206 11.292306 -9.108575 -0.367968 13.695503 -0.247514 19.861859 0.883386 54.194607 1.220666 1.938140 -60.221846 -1.362736 -27.716718 8.965148 -3.381285 11.566288 -9.063921 -18.067939 17.007509 2.428605 1.657413 -21.394208 -2.809838 0.954693 37.969220 -0.602509 -0.249630 -11.848841 0.567098 0.542349 -6.425054 0.683214 -1.767077 -51.169762 55.328361 4.767315 3.021322 33.298320 -0.742743 -4.009692 -78.335617 -0.299554 -0.314291 -10.973254 0.933873 -44.454460 -56.382109 -4.509969 1.359504 -28.995953 12.861771 4.827444 79.576239 8.506148 9.515523 -2.146257 -2.276599 -21.005974
0.000253 1.902286 -0.495281 0.000000 -9.065645 0.000000 -58.922498 9.046952 -5.986733 66.055210 -8.124928 9.307893 -9.156722 0.043849 24.972112 -0.539148 18.429138 5.504001 53.331627 0.916075 1.890275 -58.000245 -0.545922 -27.978902 8.574735 -3.320496 17.936268 -8.795603 -16.936405 17.622861 1.727683 1.782515 -21.378840 -1.970440 0.440318 35.848122 -0.277789 -0.364820 -10.218544 0.703999 0.521252 -6.140949 -0.156116 -1.514241 -51.046341 56.150442 4.692520 3.058093 32.768922 -1.486126 -3.165982 -77.608783 -1.245242 1.704458 -8.414937 1.588161 -46.063568 -55.770578 -4.069995 0.712387 -29.156988 10.483149 3.857311 78.856214 6.655117 10.737868 -2.691835 -1.168201 -19.984582
-0.007602 2.045250 -0.495835 0.000000 -10.562122 0.000000 -59.929589 9.051531 -6.128135 67.772682 -7.417427 3.848020 -10.538657 1.193984 42.244553 0.148786 18.068760 18.021500 52.862160 0.338268 1.559141 -56.080662 1.032228 -25.885348 7.235991 -3.497360 23.317795 -7.981272 -18.431513 14.555159 -0.001009 2.304416 -21.085038 0.242771 -0.248077 35.502599 0.362066 -0.160606 -9.855175 0.144034 0.431236 -6.972634 -0.965017 -1.110171 -50.718505 56.892990 5.532079 3.711365 30.966292 -3.673088 -1.935805 -77.446743 -2.359546 1.853622 -6.061156 1.449171 -42.725992 -55.117895 -3.811314 0.035258 -29.673248 9.059605 2.536933 77.659954 5.072377 9.594018 -1.171285 -0.494263 -21.239079
-0.015700 2.290817 -0.504423 0.000000 -11.577997 0.000000 -59.879066 7.362351 -5.261704 69.384190 -5.622330 -5.184284 -12.176276 2.998954 57.751148 -0.003732 22.145036 23.578687 53.505492 0.286306 1.713739 -56.666183 1.003921 -21.033410 6.996923 -2.466563 23.401229 -6.046421 -19.429149 9.113684 0.142042 2.407485 -22.142561 0.071571 0.070557 36.707469 0.165697 0.051486 -10.878161 0.413139 0.521770 -7.195381 -0.823127 -1.268236 -50.458719 57.008365 5.971809 4.296102 30.780121 -5.741031 -0.777689 -77.683238 -3.231798 1.760523 -4.764644 1.499013 -38.331326 -55.044010 -3.403605 -0.332862 -29.080336 8.298701 1.891967 76.475258 5.308418 8.235445 0.645812 -0.486941 -22.479980
-0.022223 2.575885 -0.517443 0.000000 -12.451607 0.000000 -59.096470 5.391817 -4.216952 69.329043 -2.466025 -13.692092 -13.980778 4.640134 66.192067 -1.747558 27.679567 18.881756 53.979289 0.872153 2.128345 -57.562854 0.372831 -15.174544 8.567038 -2.306363 20.446397 -5.365827 -19.003704 7.058140 0.472787 2.523246 -23.515006 0.542262 -0.407180 38.325998 -0.860507 0.338677 -11.649909 0.652686 0.936487 -7.556174 -0.346605 -1.183298 -50.255108 57.362121 7.623299 5.244437 30.595959 -7.516179 -1.428148 -77.874805 -3.900985 3.328483 -2.741699 1.066154 -34.715307 -55.013243 -2.701596 -0.454716 -27.777773 5.523350 0.120999 76.215383 2.827113 7.206457 3.071107 -0.177201 -24.325978
